<svg width="14" height="20" viewBox="0 0 14 20" fill="none" xmlns="http://www.w3.org/2000/svg">
<path class="fill__icon" d="M12.3533 19.9997C12.6743 20.0062 12.9895 19.9205 13.2552 19.7544C13.5208 19.5883 13.7236 19.35 13.8354 19.0728C13.9472 18.7957 13.9625 18.4934 13.8791 18.2078C13.7957 17.9223 13.6178 17.6679 13.3701 17.4799L3.91797 10.023L13.3701 2.56877C13.5414 2.45279 13.6849 2.30554 13.7916 2.13612C13.8983 1.96669 13.9658 1.77876 13.99 1.58418C14.0142 1.38961 13.9944 1.19257 13.9321 1.00534C13.8697 0.818108 13.766 0.644693 13.6276 0.496065C13.4891 0.347437 13.3187 0.226875 13.1273 0.141672C12.9358 0.0564689 12.7272 0.00861348 12.5147 0.00106226C12.3022 -0.00648895 12.0903 0.0263384 11.8923 0.0976999C11.6942 0.169061 11.5143 0.277311 11.3638 0.41567L0.542013 8.94227C0.37207 9.07582 0.235605 9.24158 0.142031 9.42841C0.0484561 9.61523 -1.01726e-06 9.81857 -1.03525e-06 10.0243C-1.05323e-06 10.2301 0.0484561 10.4334 0.142031 10.6202C0.235605 10.807 0.37207 10.973 0.542013 11.1065L11.3638 19.6413C11.6372 19.8649 11.9878 19.9917 12.3533 19.9997Z" fill="white"/>
</svg>
