<svg  width="24" height="20" viewBox="0 0 24 20" fill="none" xmlns="http://www.w3.org/2000/svg">
  <path class="fill__icon" d="M12.05,2.39H12C4.65,2.39,0,10,0,10s4.63,7.61,12,7.61h.1c7.32,0,12-7.61,12-7.61S19.35,2.39,12.05,2.39ZM12,16.62C5.34,16.62,1.12,10,1.12,10S5.36,3.38,12,3.38,22.88,10,22.88,10,18.66,16.62,12,16.62Z" fill="#607D8B"/>
  <path class="fill__icon" d="M12,4.8A5.2,5.2,0,1,0,17.2,10,5.2,5.2,0,0,0,12,4.8Zm0,9.44A4.24,4.24,0,1,1,16.24,10,4.24,4.24,0,0,1,12,14.24Z" fill="#607D8B"/>
</svg>