<svg width="20" height="21" viewBox="0 0 20 21" fill="none" xmlns="http://www.w3.org/2000/svg">
<path class="fill__icon" d="M0 4L7 11H0V14H10L17 21L18.25 19.75L1.25 2.75L0 4ZM18.5 11H20V14H18.5V11ZM16 11H17.5V14H16V11ZM16.85 2.88C17.47 2.27 17.85 1.43 17.85 0.5H16.35C16.35 1.5 15.5 2.35 14.5 2.35V3.85C16.74 3.85 18.5 5.68 18.5 7.92V10H20V7.92C20 5.69 18.72 3.77 16.85 2.88ZM12.5 6.7H14.03C15.08 6.7 16 7.44 16 8.75V10H17.5V8.41C17.5 6.61 15.9 5.25 14.03 5.25H12.5C11.5 5.25 10.65 4.27 10.65 3.25C10.65 2.23 11.5 1.5 12.5 1.5V0C11.6115 0 10.7594 0.352946 10.1312 0.981192C9.50294 1.60944 9.15 2.46152 9.15 3.35C9.15 4.23848 9.50294 5.09056 10.1312 5.71881C10.7594 6.34705 11.6115 6.7 12.5 6.7ZM15 13.93V11H12.07L15 13.93Z" fill="#1DBEB4"/>
</svg>
